<?xml version="1.0" encoding="UTF-8"?>
<svg version="1.1" xmlns="http://www.w3.org/2000/svg" width="94" height="88">
<path d="M0 0 C31.02 0 62.04 0 94 0 C94 29.04 94 58.08 94 88 C62.98 88 31.96 88 0 88 C0 58.96 0 29.92 0 0 Z " fill="#F7F9F7" transform="translate(0,0)"/>
<path d="M0 0 C31.02 0 62.04 0 94 0 C94 29.04 94 58.08 94 88 C62.98 88 31.96 88 0 88 C0 58.96 0 29.92 0 0 Z M13 13 C8.65819065 19.19268615 7.25389738 24.29673999 7.37109375 31.78515625 C7.36868179 32.68568222 7.36626984 33.58620819 7.36378479 34.51402283 C7.36475767 36.40400631 7.37801657 38.2940203 7.40307617 40.18383789 C7.43745933 43.05909937 7.42368676 45.93129274 7.40429688 48.80664062 C7.4111949 50.65365877 7.42086689 52.50066907 7.43359375 54.34765625 C7.42863388 55.19683121 7.42367401 56.04600616 7.41856384 56.9209137 C7.55254278 63.7840007 9.41205841 69.04676248 13.96484375 74.2421875 C14.61582031 74.78101562 15.26679688 75.31984375 15.9375 75.875 C16.58589844 76.42929688 17.23429687 76.98359375 17.90234375 77.5546875 C23.10250872 81.13766895 27.80535498 81.31935445 33.921875 81.3359375 C35.211008 81.3459227 35.211008 81.3459227 36.52618408 81.35610962 C38.34165312 81.36621271 40.15715913 81.37092737 41.97265625 81.37060547 C44.72719832 81.37496392 47.48011763 81.41126638 50.234375 81.44921875 C52.00520291 81.45509065 53.77603836 81.45905754 55.546875 81.4609375 C56.35968933 81.47530853 57.17250366 81.48967957 58.00994873 81.50448608 C65.11430941 81.44872803 71.08124788 79.45086056 76.55859375 74.8515625 C77.17863281 74.11679688 77.79867187 73.38203125 78.4375 72.625 C79.07558594 71.89539063 79.71367188 71.16578125 80.37109375 70.4140625 C83.99353255 65.04555608 84.32741556 59.71538815 84.37109375 53.453125 C84.38012222 52.64188171 84.3891507 51.83063843 84.39845276 50.99481201 C84.41290628 49.28368794 84.42182977 47.57250922 84.42553711 45.86132812 C84.43740304 43.27116439 84.48660707 40.68340982 84.53710938 38.09375 C84.63515692 28.12614376 84.35231657 19.8509984 77.27319336 12.11230469 C71.06392915 6.04357348 63.56179896 4.53426272 55.1875 4.56640625 C54.37434326 4.5611644 53.56118652 4.55592255 52.72338867 4.55052185 C51.0157993 4.54414031 49.30816574 4.54538808 47.60058594 4.55395508 C45.00635751 4.56247911 42.41432496 4.53362935 39.8203125 4.50195312 C38.15104232 4.50034097 36.48176829 4.50091892 34.8125 4.50390625 C34.04768311 4.49267227 33.28286621 4.48143829 32.49487305 4.46986389 C24.95722642 4.56615185 18.34375992 7.65624008 13 13 Z " fill="#6A8172" transform="translate(0,0)"/>
<path d="M0 0 C3.24035714 0.73571384 4.61966852 1.29614006 6.9609375 3.58984375 C7.61835937 4.22019531 8.27578125 4.85054687 8.953125 5.5 C10.03980469 6.59634766 10.03980469 6.59634766 11.1484375 7.71484375 C12.03789063 8.57980469 12.92734375 9.44476563 13.84375 10.3359375 C21.86007213 18.20380922 21.86007213 18.20380922 22.734375 22.78515625 C21.83899564 28.79016715 18.09155349 31.56330473 13.7734375 35.58984375 C12.979375 36.36070313 12.1853125 37.1315625 11.3671875 37.92578125 C4.60363394 44.43713451 4.60363394 44.43713451 0.078125 45.30078125 C-5.9268859 44.40540189 -8.70002348 40.65795974 -12.7265625 36.33984375 C-13.49742188 35.54578125 -14.26828125 34.75171875 -15.0625 33.93359375 C-22.50673605 26.20102461 -22.50673605 26.20102461 -22.41845703 20.79638672 C-21.10663811 15.97960459 -16.76983864 12.64417399 -13.2890625 9.27734375 C-12.48919922 8.45041016 -11.68933594 7.62347656 -10.86523438 6.77148438 C-4.9435979 0.91752375 -4.9435979 0.91752375 0 0 Z " fill="#4F6556" transform="translate(45.8515625,20.28515625)"/>
<path d="M0 0 C0.33 0 0.66 0 1 0 C1 7.92 1 15.84 1 24 C-4.61 24 -10.22 24 -16 24 C-12 20 -12 20 -9.5625 18.25 C-3.84866281 13.23297223 -1.44018255 7.33183846 0 0 Z " fill="#EBEDEC" transform="translate(93,64)"/>
<path d="M0 0 C3 4 3 4 4.75 6.875 C7.04162788 10.0578165 9.39404077 12.25018159 12.4140625 14.703125 C14 16 14 16 16 18 C10.72 18 5.44 18 0 18 C0 12.06 0 6.12 0 0 Z " fill="#E8EBE9" transform="translate(0,70)"/>
<path d="M0 0 C4.62 0 9.24 0 14 0 C14 6.6 14 13.2 14 20 C12.26622309 17.39933464 11.08708655 15.01943121 9.8125 12.1875 C7.64327806 7.74514131 5.28446128 5.01580987 1.35546875 2.05859375 C0.90816406 1.70925781 0.46085937 1.35992187 0 1 C0 0.67 0 0.34 0 0 Z " fill="#ECEEED" transform="translate(80,0)"/>
<path d="M0 0 C3.96 0 7.92 0 12 0 C11.29875 0.639375 10.5975 1.27875 9.875 1.9375 C6.77748056 4.99961922 4.55509759 8.5405288 2.234375 12.20703125 C1.62335938 13.09455078 1.62335938 13.09455078 1 14 C0.67 14 0.34 14 0 14 C0 9.38 0 4.76 0 0 Z " fill="#EBEDEB" transform="translate(0,0)"/>
<path d="M0 0 C1.65 0.33 3.3 0.66 5 1 C4.67 2.65 4.34 4.3 4 6 C2.35 5.67 0.7 5.34 -1 5 C-0.67 3.35 -0.34 1.7 0 0 Z " fill="#C3CBC6" transform="translate(53,37)"/>
</svg>
